<svg id="Layer_1" data-name="Layer 1" xmlns="http://www.w3.org/2000/svg" viewBox="0 0 48 48"><defs><style>.cls-1{fill:#4a6da7;}.cls-2{fill:#fff;}</style></defs><title>donate-color</title><rect class="cls-1" width="38" height="38"/><path class="cls-2" d="M33.69,25.45,34,13.27a.63.63,0,0,0-.18-.46L27.57,6.56a.63.63,0,0,0-.45-.18H4.63A.62.62,0,0,0,4,7a.63.63,0,0,0,.63.63H7.75V20.12H4.63a.63.63,0,1,0,0,1.25H8.38A.62.62,0,0,0,9,20.75H9V7.63H26.87l5.87,5.87L32.47,24A5,5,0,0,0,29,22.62V17a.64.64,0,0,0-.38-.58l-3.69-1.53a2.5,2.5,0,0,0-3.25.42,2.33,2.33,0,0,0-.09,3.29l.09.09,5,5s2.65,2.72,1.25,4.12-4.09-1.23-4.11-1.25l-5-5a.6.6,0,0,0-.21-.14l-6.25-2.5a.63.63,0,0,0-.47,1.16L18,22.53l4.91,4.91a8,8,0,0,0,1.14.95,5,5,0,1,0,9.87-1.52,5.18,5.18,0,0,0-.32-1.15A.9.9,0,0,0,33.69,25.45ZM22.57,17.81a1.08,1.08,0,0,1-.1-1.52.47.47,0,0,1,.1-.1,1.43,1.43,0,0,1,1-.47,1.2,1.2,0,0,1,.69.22l.13.07,3.37,1.41V22.8l-.15.05,0,0ZM29,31.37a3.73,3.73,0,0,1-3.38-2.15,3.92,3.92,0,0,0,1.31.26,2.6,2.6,0,0,0,1.89-.79c1.4-1.41.69-3.35-.32-4.77a3.74,3.74,0,1,1,1,7.42A4.36,4.36,0,0,1,29,31.37Z"/><path class="cls-2" d="M4.63,18.87a.61.61,0,0,0,.62-.62h0V17A.63.63,0,1,0,4,17v1.25a.62.62,0,0,0,.62.62Z"/></svg>